<svg width="74" height="74" xmlns="http://www.w3.org/2000/svg">
 <!-- Created with Method Draw - http://github.com/duopixel/Method-Draw/ -->

 <g>
  <title>background</title>
  <rect fill="none" id="canvas_background" height="76" width="76" y="-1" x="-1"/>
 </g>
 <g>
  <title>Layer 1</title>
  <rect rx="20" id="svg_5" height="72" width="72" y="1" x="1" stroke-opacity="null" stroke-width="null" stroke="#bf8d11" fill="#282c34"/>
  <path stroke="#daa520" stroke-dasharray="5 2 2 2 2 2" id="svg_1" d="M 11.1 31.2 l 19.8 0 l 6.1 -18.8 l 6.1 18.8 l 19.8 0 l -16 11.6 l 6.1 18.8 l -16 -11.6 l -16 11.6 l 6.1 -18.8 l -16 -11.6 z" fill-opacity="null" stroke-opacity="null" stroke-width="4" fill="none"/>
  <path id="svg_2" d="M 23.1 33.9 l 10.6 0 l 3.3 -10 l 3.3 10 l 10.6 0 l -8.6 6.2 l 3.3 10 l -8.6 -6.2 l -8.6 6.2 l 3.3 -10 l -8.6 -6.2 l -0.2 0 z" fill-opacity="null" stroke-opacity="null" stroke-width="3" fill="none" stroke-dasharray="5 2 2 2" stroke="#d29500"/>
  <path stroke="#bf8d11" id="svg_3" d="M 6.2 30.1 l 23.5 0 l 7.3 -22.3 l 7.3 22.3 l 23.5 0 l -19 13.8 l 7.3 22.3 l -19 -13.8 l -19 13.8 l 7.3 -22.3 l -19 -13.8 l -0.2 0 z" fill-opacity="null" stroke-opacity="null" fill="none"/>
  <path id="svg_4" d="M 4.7 29.5 l 24.7 0 l 7.7 -23.4 l 7.7 23.4 l 24.7 0 l -20 14.5 l 7.7 23.4 l -20 -14.5 l -20 14.5 l 7.7 -23.4 l -20 -14.5 l -0.2 0 l 0 0 z" fill-opacity="null" stroke-opacity="null" fill="none" stroke-dasharray="2 2" stroke="#bf8d11"/>
 </g>
</svg>